<svg width="40" height="51" viewBox="0 0 40 51" fill="none" xmlns="http://www.w3.org/2000/svg">
<path d="M28.657 0.32688C26.4312 0.59959 23.2812 2.68263 21.7172 4.91072C20.8148 6.18724 20.2843 7.40573 19.825 9.23926L19.5953 10.156L19.6062 11.1308C19.6172 11.6646 19.6445 12.1636 19.6718 12.2449C19.7429 12.4364 19.8797 12.4654 20.8422 12.4712C21.6406 12.477 21.6898 12.4712 22.3734 12.2565C24.2 11.6937 25.5398 10.8465 26.4914 9.64543C26.7211 9.34951 27.0656 8.95495 27.2461 8.75767C27.8476 8.13102 28.6187 6.73846 29.0453 5.53157C29.4718 4.31889 29.6632 3.19323 29.7179 1.59179L29.7507 0.564776L29.6086 0.413916C29.45 0.245648 29.3625 0.239846 28.657 0.32688Z" fill="#717171"/>
<path d="M28.1484 12.3203C27.0656 12.3783 24.1508 13.2371 22.0562 14.1074C20.7875 14.6354 20.7875 14.6354 20.5359 14.6819C20.0984 14.7573 19.0265 14.4266 17.1836 13.6374C16.2047 13.2255 15.1984 12.9121 13.7109 12.5524C13.0875 12.4073 12.0539 12.3899 11.6054 12.5234C11.425 12.5756 10.8562 12.6975 10.3422 12.7903C9.23747 12.9992 8.61403 13.2023 7.78278 13.6374C5.27263 14.9372 3.56091 16.8055 2.20466 19.7299C1.6031 21.018 1.16013 22.2771 0.832002 23.6175C0.345283 25.6077 0.334346 29.4256 0.810127 31.7407C0.864814 32.025 0.914033 32.3616 0.914033 32.495C0.914033 32.7735 0.963252 32.9824 1.42263 34.903C1.84919 36.6785 1.80544 36.5334 2.62028 38.7035C3.76325 41.7497 4.12419 42.4228 6.45935 45.8404C7.41638 47.2388 7.9031 47.877 8.60856 48.6371C9.34685 49.4378 9.94294 49.902 10.7851 50.343C11.7367 50.8362 12.1523 50.9464 13.0273 50.9406C14.1484 50.9406 15.0508 50.6969 16.7679 49.931C17.8508 49.4494 17.9218 49.4262 19.8906 48.9969C20.4812 48.8634 21.0281 48.875 21.8593 49.0201C22.1437 49.0665 22.5703 49.1361 22.8 49.1709C23.2648 49.2406 23.7351 49.403 24.9492 49.9194C26.4148 50.5461 27.4484 50.8246 28.5312 50.8942C30.1062 50.9987 31.6265 50.256 33.2508 48.6023C34.9078 46.9022 36.4554 44.5755 38.0195 41.4364C38.4406 40.5893 39.1133 38.8544 39.2281 38.3322C39.2773 38.1233 39.3593 37.8622 39.4195 37.7577C39.4742 37.6533 39.5234 37.5082 39.5234 37.4444C39.5234 37.2355 39.1242 36.9048 38.4187 36.5276C37.0898 35.8024 35.7828 34.5607 34.9023 33.1623C34.2734 32.1585 33.639 30.6557 33.4804 29.7679C33.2125 28.3057 33.1359 26.7043 33.289 25.5902C33.3273 25.3001 33.464 24.6909 33.5953 24.2267C34.1586 22.2133 34.5468 21.4068 35.4273 20.4088C35.6953 20.1128 35.914 19.8401 35.914 19.8169C35.914 19.7183 37.2539 18.5288 37.582 18.3373C37.7625 18.2271 37.9922 18.0588 38.0906 17.9544C38.3914 17.6411 38.3476 17.5192 37.5929 16.5792C36.5812 15.3201 35.307 14.2873 33.8086 13.5156C32.8734 13.034 32.2281 12.7961 31.3258 12.5988C30.4015 12.3899 29.0234 12.2681 28.1484 12.3203Z" fill="#717171"/>
</svg>
